ffmpeg started on 2026-03-28 at 15:50:46
Report written to "D:\Convert\FFMetrics\reports\ssim_report-6.txt"
Log level: 32
Command line:
ffmpeg -hide_banner -nostdin -r 24000/1001 -i "F:\\\xc0\xed\xe8\xec\xe5\\\xce\xed\xe3\xee\xe8\xed\xe3\xe8\\!_40_\xce\xf1\xe5\xed\xfc_2025\\JamClub\\\xcc\xeb\xe0\xe4\xf8\xe0\xff \xf1\xe5\xf1\xf2\xf0\xe0 \xec\xee\xe5\xe3\xee \xe4\xf0\xf3\xe3\xe0 \xe4\xee\xf1\xe0\xe6\xe4\xe0\xe5\xf2\\JamClub_Tomodachi_no_Imouto_ga_Ore_ni_dake_Uzai_02_1080p_HEVC.mkv" -r 24000/1001 -i "F:\\\xc0\xed\xe8\xec\xe5\\\xce\xed\xe3\xee\xe8\xed\xe3\xe8\\!_40_\xce\xf1\xe5\xed\xfc_2025\\JamClub\\\xcc\xeb\xe0\xe4\xf8\xe0\xff \xf1\xe5\xf1\xf2\xf0\xe0 \xec\xee\xe5\xe3\xee \xe4\xf0\xf3\xe3\xe0 \xe4\xee\xf1\xe0\xe6\xe4\xe0\xe5\xf2\\JamClub_Tomodachi_no_Imouto_ga_Ore_ni_dake_Uzai_02_1080p.mp4" -lavfi "[0:v]settb=AVTB,setpts=PTS-STARTPTS,format=pix_fmts=yuv420p10le,fps=24000/1001,scale=1920:1080:flags=lanczos:param0=3:out_range=limited:out_color_matrix=bt709:out_chroma_loc=left,setsar=1/1,setdar=(1920/1080)*(1/1),colorspace=format=yuv420p10:range=tv:primaries=bt709:trc=bt709:space=bt709:fast=0[main];[1:v]settb=AVTB,setpts=PTS-STARTPTS,format=pix_fmts=yuv420p,fps=24000/1001,scale=1920:1080:flags=lanczos:param0=3:out_range=limited:out_color_matrix=bt709:out_chroma_loc=left,setsar=1/1,setdar=(1920/1080)*(1/1),colorspace=format=yuv420p:range=tv:primaries=bt709:trc=bt709:space=bt709:fast=0[ref];[main][ref]ssim=eof_action=endall:stats_file='D\\:/Convert/FFMetrics/logs/ssim_logfile-6.txt'" -f null -
Input #0, matroska,webm, from 'F:\Аниме\Онгоинги\!_40_Осень_2025\JamClub\Младшая сестра моего друга досаждает\JamClub_Tomodachi_no_Imouto_ga_Ore_ni_dake_Uzai_02_1080p_HEVC.mkv':
  Metadata:
    COMPATIBLE_BRANDS: isomiso2avc1mp41
    MAJOR_BRAND     : isom
    MINOR_VERSION   : 512
    ENCODER         : Lavf61.7.100
  Duration: 00:23:49.40, start: -0.021000, bitrate: 1012 kb/s
  Stream #0:0: Video: hevc (Main 10), yuv420p10le(tv, bt709, progressive), 1920x1080 [SAR 1:1 DAR 16:9], 23.98 fps, 23.98 tbr, 1k tbn (default)
      Metadata:
        HANDLER_NAME    : VideoHandler
        VENDOR_ID       : [0][0][0][0]
        ENCODER         : Lavc61.19.100 libx265
        BPS             : 817077
        DURATION        : 00:23:49.302708333
        NUMBER_OF_FRAMES: 34269
        NUMBER_OF_BYTES : 145981352
        _STATISTICS_WRITING_APP: mkvpropedit v94.0 ('Initiate') 64-bit
        _STATISTICS_WRITING_DATE_UTC: 2026-03-28 09:52:22
        _STATISTICS_TAGS: BPS DURATION NUMBER_OF_FRAMES NUMBER_OF_BYTES
  Stream #0:1(eng): Audio: aac (LC), 48000 Hz, stereo, fltp (default)
      Metadata:
        HANDLER_NAME    : SoundHandler
        VENDOR_ID       : [0][0][0][0]
        ENCODER         : Lavc61.19.100 aac
        BPS             : 191498
        DURATION        : 00:23:49.379000000
        NUMBER_OF_FRAMES: 67003
        NUMBER_OF_BYTES : 34215581
        _STATISTICS_WRITING_APP: mkvpropedit v94.0 ('Initiate') 64-bit
        _STATISTICS_WRITING_DATE_UTC: 2026-03-28 09:52:22
        _STATISTICS_TAGS: BPS DURATION NUMBER_OF_FRAMES NUMBER_OF_BYTES
Input #1, mov,mp4,m4a,3gp,3g2,mj2, from 'F:\Аниме\Онгоинги\!_40_Осень_2025\JamClub\Младшая сестра моего друга досаждает\JamClub_Tomodachi_no_Imouto_ga_Ore_ni_dake_Uzai_02_1080p.mp4':
  Metadata:
    major_brand     : isom
    minor_version   : 512
    compatible_brands: isomiso2avc1mp41
    encoder         : Lavf60.16.100
  Duration: 00:23:49.38, start: 0.000000, bitrate: 3700 kb/s
  Stream #1:0[0x1](und): Video: h264 (High) (avc1 / 0x31637661), yuv420p(tv, bt709, progressive), 1920x1080 [SAR 1:1 DAR 16:9], 3502 kb/s, 23.98 fps, 23.98 tbr, 90k tbn (default)
      Metadata:
        handler_name    : VideoHandler
        vendor_id       : [0][0][0][0]
  Stream #1:1[0x2](eng): Audio: aac (LC) (mp4a / 0x6134706D), 48000 Hz, stereo, fltp, 191 kb/s (default)
      Metadata:
        handler_name    : SoundHandler
        vendor_id       : [0][0][0][0]
Stream mapping:
  Stream #0:0 (hevc) -> settb:default
  Stream #1:0 (h264) -> settb:default
  ssim:default -> Stream #0:0 (wrapped_avframe)
  Stream #0:1 -> #0:1 (aac (native) -> pcm_s16le (native))
Output #0, null, to 'pipe:':
  Metadata:
    COMPATIBLE_BRANDS: isomiso2avc1mp41
    MAJOR_BRAND     : isom
    MINOR_VERSION   : 512
    encoder         : Lavf61.7.100
  Stream #0:0: Video: wrapped_avframe, yuv420p10le(tv, bt709, progressive), 1920x1080 [SAR 1:1 DAR 16:9], q=2-31, 200 kb/s, 23.98 fps, 23.98 tbn
      Metadata:
        encoder         : Lavc61.19.100 wrapped_avframe
  Stream #0:1(eng): Audio: pcm_s16le, 48000 Hz, stereo, s16, 1536 kb/s (default)
      Metadata:
        HANDLER_NAME    : SoundHandler
        VENDOR_ID       : [0][0][0][0]
        _STATISTICS_TAGS: BPS DURATION NUMBER_OF_FRAMES NUMBER_OF_BYTES
        BPS             : 191498
        DURATION        : 00:23:49.379000000
        NUMBER_OF_FRAMES: 67003
        NUMBER_OF_BYTES : 34215581
        _STATISTICS_WRITING_APP: mkvpropedit v94.0 ('Initiate') 64-bit
        _STATISTICS_WRITING_DATE_UTC: 2026-03-28 09:52:22
        encoder         : Lavc61.19.100 pcm_s16le
frame=  102 fps=0.0 q=-0.0 size=N/A time=00:00:04.25 bitrate=N/A speed=8.19x    frame=  243 fps=235 q=-0.0 size=N/A time=00:00:10.13 bitrate=N/A speed=9.82x    frame=  404 fps=262 q=-0.0 size=N/A time=00:00:16.85 bitrate=N/A speed=10.9x    frame=  594 fps=287 q=-0.0 size=N/A time=00:00:24.77 bitrate=N/A speed=  12x    frame=  790 fps=306 q=-0.0 size=N/A time=00:00:32.94 bitrate=N/A speed=12.8x    frame=  980 fps=317 q=-0.0 size=N/A time=00:00:40.87 bitrate=N/A speed=13.2x    frame= 1181 fps=328 q=-0.0 size=N/A time=00:00:49.25 bitrate=N/A speed=13.7x    frame= 1377 fps=333 q=-0.0 size=N/A time=00:00:57.43 bitrate=N/A speed=13.9x    frame= 1577 fps=340 q=-0.0 size=N/A time=00:01:05.77 bitrate=N/A speed=14.2x    frame= 1767 fps=343 q=-0.0 size=N/A time=00:01:13.69 bitrate=N/A speed=14.3x    frame= 1964 fps=346 q=-0.0 size=N/A time=00:01:21.91 bitrate=N/A speed=14.4x    frame= 2150 fps=347 q=-0.0 size=N/A time=00:01:29.67 bitrate=N/A speed=14.5x    frame= 2350 fps=351 q=-0.0 size=N/A time=00:01:38.01 bitrate=N/A speed=14.6x    frame= 2550 fps=353 q=-0.0 size=N/A time=00:01:46.35 bitrate=N/A speed=14.7x    frame= 2742 fps=354 q=-0.0 size=N/A time=00:01:54.36 bitrate=N/A speed=14.8x    frame= 2934 fps=356 q=-0.0 size=N/A time=00:02:02.37 bitrate=N/A speed=14.8x    frame= 3125 fps=357 q=-0.0 size=N/A time=00:02:10.33 bitrate=N/A speed=14.9x    frame= 3318 fps=357 q=-0.0 size=N/A time=00:02:18.38 bitrate=N/A speed=14.9x    frame= 3515 fps=359 q=-0.0 size=N/A time=00:02:26.60 bitrate=N/A speed=  15x    frame= 3715 fps=360 q=-0.0 size=N/A time=00:02:34.94 bitrate=N/A speed=  15x    frame= 3891 fps=359 q=-0.0 size=N/A time=00:02:42.28 bitrate=N/A speed=  15x    frame= 4021 fps=354 q=-0.0 size=N/A time=00:02:47.70 bitrate=N/A speed=14.8x    frame= 4187 fps=353 q=-0.0 size=N/A time=00:02:54.63 bitrate=N/A speed=14.7x    frame= 4352 fps=351 q=-0.0 size=N/A time=00:03:01.51 bitrate=N/A speed=14.7x    frame= 4522 fps=351 q=-0.0 size=N/A time=00:03:08.60 bitrate=N/A speed=14.6x    frame= 4679 fps=349 q=-0.0 size=N/A time=00:03:15.15 bitrate=N/A speed=14.6x    frame= 4862 fps=349 q=-0.0 size=N/A time=00:03:22.78 bitrate=N/A speed=14.6x    frame= 5038 fps=349 q=-0.0 size=N/A time=00:03:30.12 bitrate=N/A speed=14.6x    frame= 5211 fps=348 q=-0.0 size=N/A time=00:03:37.34 bitrate=N/A speed=14.5x    frame= 5351 fps=346 q=-0.0 size=N/A time=00:03:43.18 bitrate=N/A speed=14.4x    frame= 5487 fps=343 q=-0.0 size=N/A time=00:03:48.85 bitrate=N/A speed=14.3x    frame= 5644 fps=342 q=-0.0 size=N/A time=00:03:55.40 bitrate=N/A speed=14.3x    frame= 5796 fps=341 q=-0.0 size=N/A time=00:04:01.74 bitrate=N/A speed=14.2x    frame= 5943 fps=339 q=-0.0 size=N/A time=00:04:07.87 bitrate=N/A speed=14.1x    frame= 6123 fps=339 q=-0.0 size=N/A time=00:04:15.38 bitrate=N/A speed=14.1x    frame= 6320 fps=340 q=-0.0 size=N/A time=00:04:23.59 bitrate=N/A speed=14.2x    frame= 6516 fps=342 q=-0.0 size=N/A time=00:04:31.77 bitrate=N/A speed=14.2x    frame= 6713 fps=342 q=-0.0 size=N/A time=00:04:39.98 bitrate=N/A speed=14.3x    frame= 6894 fps=343 q=-0.0 size=N/A time=00:04:47.53 bitrate=N/A speed=14.3x    frame= 7090 fps=344 q=-0.0 size=N/A time=00:04:55.71 bitrate=N/A speed=14.3x    frame= 7279 fps=344 q=-0.0 size=N/A time=00:05:03.59 bitrate=N/A speed=14.4x    frame= 7468 fps=345 q=-0.0 size=N/A time=00:05:11.47 bitrate=N/A speed=14.4x    frame= 7665 fps=346 q=-0.0 size=N/A time=00:05:19.69 bitrate=N/A speed=14.4x    frame= 7824 fps=345 q=-0.0 size=N/A time=00:05:26.32 bitrate=N/A speed=14.4x    frame= 8006 fps=345 q=-0.0 size=N/A time=00:05:33.91 bitrate=N/A speed=14.4x    frame= 8186 fps=345 q=-0.0 size=N/A time=00:05:41.42 bitrate=N/A speed=14.4x    frame= 8377 fps=346 q=-0.0 size=N/A time=00:05:49.39 bitrate=N/A speed=14.4x    frame= 8566 fps=346 q=-0.0 size=N/A time=00:05:57.27 bitrate=N/A speed=14.4x    frame= 8766 fps=347 q=-0.0 size=N/A time=00:06:05.61 bitrate=N/A speed=14.5x    frame= 8960 fps=348 q=-0.0 size=N/A time=00:06:13.70 bitrate=N/A speed=14.5x    frame= 9149 fps=348 q=-0.0 size=N/A time=00:06:21.58 bitrate=N/A speed=14.5x    frame= 9346 fps=349 q=-0.0 size=N/A time=00:06:29.80 bitrate=N/A speed=14.5x    frame= 9523 fps=348 q=-0.0 size=N/A time=00:06:37.18 bitrate=N/A speed=14.5x    frame= 9716 fps=349 q=-0.0 size=N/A time=00:06:45.23 bitrate=N/A speed=14.6x    frame= 9903 fps=349 q=-0.0 size=N/A time=00:06:53.03 bitrate=N/A speed=14.6x    frame=10074 fps=349 q=-0.0 size=N/A time=00:07:00.16 bitrate=N/A speed=14.6x    frame=10261 fps=349 q=-0.0 size=N/A time=00:07:07.96 bitrate=N/A speed=14.6x    frame=10464 fps=350 q=-0.0 size=N/A time=00:07:16.43 bitrate=N/A speed=14.6x    frame=10656 fps=350 q=-0.0 size=N/A time=00:07:24.44 bitrate=N/A speed=14.6x    frame=10855 fps=351 q=-0.0 size=N/A time=00:07:32.74 bitrate=N/A speed=14.6x    frame=11042 fps=351 q=-0.0 size=N/A time=00:07:40.54 bitrate=N/A speed=14.6x    frame=11242 fps=352 q=-0.0 size=N/A time=00:07:48.88 bitrate=N/A speed=14.7x    frame=11429 fps=352 q=-0.0 size=N/A time=00:07:56.68 bitrate=N/A speed=14.7x    frame=11631 fps=352 q=-0.0 size=N/A time=00:08:05.10 bitrate=N/A speed=14.7x    frame=11826 fps=353 q=-0.0 size=N/A time=00:08:13.24 bitrate=N/A speed=14.7x    frame=12012 fps=353 q=-0.0 size=N/A time=00:08:21.00 bitrate=N/A speed=14.7x    frame=12208 fps=353 q=-0.0 size=N/A time=00:08:29.17 bitrate=N/A speed=14.7x    frame=12394 fps=353 q=-0.0 size=N/A time=00:08:36.93 bitrate=N/A speed=14.7x    frame=12588 fps=354 q=-0.0 size=N/A time=00:08:45.02 bitrate=N/A speed=14.8x    frame=12779 fps=354 q=-0.0 size=N/A time=00:08:52.99 bitrate=N/A speed=14.8x    frame=12966 fps=354 q=-0.0 size=N/A time=00:09:00.79 bitrate=N/A speed=14.8x    frame=13160 fps=354 q=-0.0 size=N/A time=00:09:08.88 bitrate=N/A speed=14.8x    frame=13349 fps=354 q=-0.0 size=N/A time=00:09:16.76 bitrate=N/A speed=14.8x    frame=13544 fps=355 q=-0.0 size=N/A time=00:09:24.89 bitrate=N/A speed=14.8x    frame=13735 fps=355 q=-0.0 size=N/A time=00:09:32.86 bitrate=N/A speed=14.8x    frame=13938 fps=355 q=-0.0 size=N/A time=00:09:41.33 bitrate=N/A speed=14.8x    frame=14127 fps=356 q=-0.0 size=N/A time=00:09:49.21 bitrate=N/A speed=14.8x    frame=14319 fps=356 q=-0.0 size=N/A time=00:09:57.22 bitrate=N/A speed=14.8x    frame=14515 fps=356 q=-0.0 size=N/A time=00:10:05.39 bitrate=N/A speed=14.9x    frame=14711 fps=356 q=-0.0 size=N/A time=00:10:13.57 bitrate=N/A speed=14.9x    frame=14853 fps=356 q=-0.0 size=N/A time=00:10:19.49 bitrate=N/A speed=14.8x    frame=15043 fps=356 q=-0.0 size=N/A time=00:10:27.41 bitrate=N/A speed=14.8x    frame=15233 fps=356 q=-0.0 size=N/A time=00:10:35.34 bitrate=N/A speed=14.8x    frame=15425 fps=356 q=-0.0 size=N/A time=00:10:43.35 bitrate=N/A speed=14.8x    frame=15609 fps=356 q=-0.0 size=N/A time=00:10:51.02 bitrate=N/A speed=14.8x    frame=15802 fps=356 q=-0.0 size=N/A time=00:10:59.07 bitrate=N/A speed=14.9x    frame=15995 fps=356 q=-0.0 size=N/A time=00:11:07.12 bitrate=N/A speed=14.9x    frame=16186 fps=357 q=-0.0 size=N/A time=00:11:15.09 bitrate=N/A speed=14.9x    frame=16375 fps=357 q=-0.0 size=N/A time=00:11:22.97 bitrate=N/A speed=14.9x    frame=16576 fps=357 q=-0.0 size=N/A time=00:11:31.35 bitrate=N/A speed=14.9x    frame=16767 fps=357 q=-0.0 size=N/A time=00:11:39.32 bitrate=N/A speed=14.9x    frame=16957 fps=357 q=-0.0 size=N/A time=00:11:47.24 bitrate=N/A speed=14.9x    frame=17152 fps=358 q=-0.0 size=N/A time=00:11:55.38 bitrate=N/A speed=14.9x    frame=17349 fps=358 q=-0.0 size=N/A time=00:12:03.59 bitrate=N/A speed=14.9x    frame=17543 fps=358 q=-0.0 size=N/A time=00:12:11.68 bitrate=N/A speed=14.9x    frame=17733 fps=358 q=-0.0 size=N/A time=00:12:19.61 bitrate=N/A speed=14.9x    frame=17941 fps=359 q=-0.0 size=N/A time=00:12:28.28 bitrate=N/A speed=  15x    frame=18135 fps=359 q=-0.0 size=N/A time=00:12:36.38 bitrate=N/A speed=  15x    frame=18335 fps=359 q=-0.0 size=N/A time=00:12:44.72 bitrate=N/A speed=  15x    frame=18539 fps=359 q=-0.0 size=N/A time=00:12:53.23 bitrate=N/A speed=  15x    frame=18734 fps=360 q=-0.0 size=N/A time=00:13:01.36 bitrate=N/A speed=  15x    frame=18934 fps=360 q=-0.0 size=N/A time=00:13:09.70 bitrate=N/A speed=  15x    frame=19134 fps=360 q=-0.0 size=N/A time=00:13:18.04 bitrate=N/A speed=  15x    frame=19322 fps=360 q=-0.0 size=N/A time=00:13:25.88 bitrate=N/A speed=  15x    frame=19519 fps=360 q=-0.0 size=N/A time=00:13:34.10 bitrate=N/A speed=  15x    frame=19717 fps=361 q=-0.0 size=N/A time=00:13:42.36 bitrate=N/A speed=  15x    frame=19907 fps=361 q=-0.0 size=N/A time=00:13:50.28 bitrate=N/A speed=  15x    frame=20100 fps=361 q=-0.0 size=N/A time=00:13:58.33 bitrate=N/A speed=15.1x    frame=20291 fps=361 q=-0.0 size=N/A time=00:14:06.30 bitrate=N/A speed=15.1x    frame=20490 fps=361 q=-0.0 size=N/A time=00:14:14.60 bitrate=N/A speed=15.1x    frame=20684 fps=361 q=-0.0 size=N/A time=00:14:22.69 bitrate=N/A speed=15.1x    frame=20871 fps=361 q=-0.0 size=N/A time=00:14:30.49 bitrate=N/A speed=15.1x    frame=21067 fps=361 q=-0.0 size=N/A time=00:14:38.66 bitrate=N/A speed=15.1x    frame=21257 fps=361 q=-0.0 size=N/A time=00:14:46.59 bitrate=N/A speed=15.1x    frame=21453 fps=362 q=-0.0 size=N/A time=00:14:54.76 bitrate=N/A speed=15.1x    frame=21651 fps=362 q=-0.0 size=N/A time=00:15:03.02 bitrate=N/A speed=15.1x    frame=21844 fps=362 q=-0.0 size=N/A time=00:15:11.07 bitrate=N/A speed=15.1x    frame=22033 fps=362 q=-0.0 size=N/A time=00:15:18.95 bitrate=N/A speed=15.1x    frame=22225 fps=362 q=-0.0 size=N/A time=00:15:26.96 bitrate=N/A speed=15.1x    frame=22409 fps=362 q=-0.0 size=N/A time=00:15:34.64 bitrate=N/A speed=15.1x    frame=22600 fps=362 q=-0.0 size=N/A time=00:15:42.60 bitrate=N/A speed=15.1x    frame=22781 fps=362 q=-0.0 size=N/A time=00:15:50.15 bitrate=N/A speed=15.1x    frame=22967 fps=362 q=-0.0 size=N/A time=00:15:57.91 bitrate=N/A speed=15.1x    frame=23155 fps=362 q=-0.0 size=N/A time=00:16:05.75 bitrate=N/A speed=15.1x    frame=23340 fps=362 q=-0.0 size=N/A time=00:16:13.47 bitrate=N/A speed=15.1x    frame=23537 fps=362 q=-0.0 size=N/A time=00:16:21.68 bitrate=N/A speed=15.1x    frame=23733 fps=362 q=-0.0 size=N/A time=00:16:29.86 bitrate=N/A speed=15.1x    frame=23921 fps=362 q=-0.0 size=N/A time=00:16:37.70 bitrate=N/A speed=15.1x    frame=24123 fps=362 q=-0.0 size=N/A time=00:16:46.13 bitrate=N/A speed=15.1x    frame=24300 fps=362 q=-0.0 size=N/A time=00:16:53.51 bitrate=N/A speed=15.1x    frame=24501 fps=363 q=-0.0 size=N/A time=00:17:01.89 bitrate=N/A speed=15.1x    frame=24695 fps=363 q=-0.0 size=N/A time=00:17:09.98 bitrate=N/A speed=15.1x    frame=24861 fps=362 q=-0.0 size=N/A time=00:17:16.91 bitrate=N/A speed=15.1x    frame=25014 fps=362 q=-0.0 size=N/A time=00:17:23.29 bitrate=N/A speed=15.1x    frame=25175 fps=361 q=-0.0 size=N/A time=00:17:30.00 bitrate=N/A speed=15.1x    frame=25343 fps=361 q=-0.0 size=N/A time=00:17:37.01 bitrate=N/A speed=15.1x    frame=25551 fps=361 q=-0.0 size=N/A time=00:17:45.68 bitrate=N/A speed=15.1x    frame=25745 fps=362 q=-0.0 size=N/A time=00:17:53.78 bitrate=N/A speed=15.1x    frame=25933 fps=362 q=-0.0 size=N/A time=00:18:01.62 bitrate=N/A speed=15.1x    frame=26131 fps=362 q=-0.0 size=N/A time=00:18:09.88 bitrate=N/A speed=15.1x    frame=26310 fps=362 q=-0.0 size=N/A time=00:18:17.34 bitrate=N/A speed=15.1x    frame=26502 fps=362 q=-0.0 size=N/A time=00:18:25.35 bitrate=N/A speed=15.1x    frame=26695 fps=362 q=-0.0 size=N/A time=00:18:33.40 bitrate=N/A speed=15.1x    frame=26888 fps=362 q=-0.0 size=N/A time=00:18:41.45 bitrate=N/A speed=15.1x    frame=27074 fps=362 q=-0.0 size=N/A time=00:18:49.21 bitrate=N/A speed=15.1x    frame=27262 fps=362 q=-0.0 size=N/A time=00:18:57.05 bitrate=N/A speed=15.1x    frame=27450 fps=362 q=-0.0 size=N/A time=00:19:04.89 bitrate=N/A speed=15.1x    frame=27626 fps=362 q=-0.0 size=N/A time=00:19:12.23 bitrate=N/A speed=15.1x    frame=27809 fps=362 q=-0.0 size=N/A time=00:19:19.86 bitrate=N/A speed=15.1x    frame=28007 fps=362 q=-0.0 size=N/A time=00:19:28.12 bitrate=N/A speed=15.1x    frame=28186 fps=362 q=-0.0 size=N/A time=00:19:35.59 bitrate=N/A speed=15.1x    frame=28380 fps=362 q=-0.0 size=N/A time=00:19:43.68 bitrate=N/A speed=15.1x    frame=28571 fps=362 q=-0.0 size=N/A time=00:19:51.64 bitrate=N/A speed=15.1x    frame=28760 fps=362 q=-0.0 size=N/A time=00:19:59.53 bitrate=N/A speed=15.1x    frame=28953 fps=362 q=-0.0 size=N/A time=00:20:07.58 bitrate=N/A speed=15.1x    frame=29145 fps=362 q=-0.0 size=N/A time=00:20:15.58 bitrate=N/A speed=15.1x    frame=29340 fps=362 q=-0.0 size=N/A time=00:20:23.72 bitrate=N/A speed=15.1x    frame=29535 fps=362 q=-0.0 size=N/A time=00:20:31.85 bitrate=N/A speed=15.1x    frame=29734 fps=362 q=-0.0 size=N/A time=00:20:40.15 bitrate=N/A speed=15.1x    frame=29927 fps=363 q=-0.0 size=N/A time=00:20:48.20 bitrate=N/A speed=15.1x    frame=30121 fps=363 q=-0.0 size=N/A time=00:20:56.29 bitrate=N/A speed=15.1x    frame=30316 fps=363 q=-0.0 size=N/A time=00:21:04.42 bitrate=N/A speed=15.1x    frame=30513 fps=363 q=-0.0 size=N/A time=00:21:12.64 bitrate=N/A speed=15.1x    frame=30704 fps=363 q=-0.0 size=N/A time=00:21:20.61 bitrate=N/A speed=15.1x    frame=30903 fps=363 q=-0.0 size=N/A time=00:21:28.91 bitrate=N/A speed=15.1x    frame=31088 fps=363 q=-0.0 size=N/A time=00:21:36.62 bitrate=N/A speed=15.1x    frame=31271 fps=363 q=-0.0 size=N/A time=00:21:44.26 bitrate=N/A speed=15.1x    frame=31458 fps=363 q=-0.0 size=N/A time=00:21:52.06 bitrate=N/A speed=15.1x    frame=31657 fps=363 q=-0.0 size=N/A time=00:22:00.36 bitrate=N/A speed=15.1x    frame=31840 fps=363 q=-0.0 size=N/A time=00:22:07.99 bitrate=N/A speed=15.1x    frame=32035 fps=363 q=-0.0 size=N/A time=00:22:16.12 bitrate=N/A speed=15.1x    frame=32214 fps=363 q=-0.0 size=N/A time=00:22:23.59 bitrate=N/A speed=15.1x    frame=32395 fps=363 q=-0.0 size=N/A time=00:22:31.14 bitrate=N/A speed=15.1x    frame=32578 fps=363 q=-0.0 size=N/A time=00:22:38.77 bitrate=N/A speed=15.1x    frame=32760 fps=363 q=-0.0 size=N/A time=00:22:46.36 bitrate=N/A speed=15.1x    frame=32941 fps=363 q=-0.0 size=N/A time=00:22:53.91 bitrate=N/A speed=15.1x    frame=33116 fps=363 q=-0.0 size=N/A time=00:23:01.21 bitrate=N/A speed=15.1x    frame=33296 fps=363 q=-0.0 size=N/A time=00:23:08.72 bitrate=N/A speed=15.1x    frame=33473 fps=363 q=-0.0 size=N/A time=00:23:16.10 bitrate=N/A speed=15.1x    frame=33658 fps=363 q=-0.0 size=N/A time=00:23:23.81 bitrate=N/A speed=15.1x    frame=33843 fps=363 q=-0.0 size=N/A time=00:23:31.53 bitrate=N/A speed=15.1x    frame=34005 fps=362 q=-0.0 size=N/A time=00:23:38.29 bitrate=N/A speed=15.1x    frame=34184 fps=362 q=-0.0 size=N/A time=00:23:45.75 bitrate=N/A speed=15.1x    [Parsed_ssim_16 @ 0000019616d4f4c0] SSIM Y:0.994628 (22.698545) U:0.995159 (23.150946) V:0.994862 (22.891759) All:0.994755 (22.802891)
[out#0/null @ 000001961663ae00] video:14725KiB audio:268012KiB subtitle:0KiB other streams:0KiB global headers:0KiB muxing overhead: unknown
frame=34269 fps=362 q=-0.0 Lsize=N/A time=00:23:49.30 bitrate=N/A speed=15.1x    
